HIERARCHY
ROOT Hips
{
	OFFSET 0.000000 0.000000 0.000000
	CHANNELS 6 Xposition Yposition Zposition Zrotation Yrotation Xrotation 
	JOINT LHipJoint
	{
		OFFSET 0.000000 0.000000 0.000000
		CHANNELS 3 Zrotation Yrotation Xrotation
		JOINT LeftUpLeg
		{
			OFFSET 1.363060 -1.794630 0.839290
			CHANNELS 3 Zrotation Yrotation Xrotation
			JOINT LeftLeg
			{
				OFFSET 2.448110 -6.726130 0.000000
				CHANNELS 3 Zrotation Yrotation Xrotation
				JOINT LeftFoot
				{
					OFFSET 2.562200 -7.039590 0.000000
					CHANNELS 3 Zrotation Yrotation Xrotation
					JOINT LeftToeBase
					{
						OFFSET 0.157640 -0.433110 2.322550
						CHANNELS 3 Zrotation Yrotation Xrotation
						End Site
						{
							OFFSET 0.000000 0.000000 0.000000
						}
					}
				}
			}
		}
	}
	JOINT RHipJoint
	{
		OFFSET 0.000000 0.000000 0.000000
		CHANNELS 3 Zrotation Yrotation Xrotation
		JOINT RightUpLeg
		{
			OFFSET -1.305520 -1.794630 0.839290
			CHANNELS 3 Zrotation Yrotation Xrotation
			JOINT RightLeg
			{
				OFFSET -2.542530 -6.985550 0.000000
				CHANNELS 3 Zrotation Yrotation Xrotation
				JOINT RightFoot
				{
					OFFSET -2.568260 -7.056230 0.000000
					CHANNELS 3 Zrotation Yrotation Xrotation
					JOINT RightToeBase
					{
						OFFSET -0.164730 -0.452590 2.363150
						CHANNELS 3 Zrotation Yrotation Xrotation
						End Site
						{
							OFFSET 0.000000 0.000000 0.000000
						}
					}
				}
			}
		}
	}
	JOINT LowerBack
	{
		OFFSET 0.000000 0.000000 0.000000
		CHANNELS 3 Zrotation Yrotation Xrotation
		JOINT Spine
		{
			OFFSET 0.028270 2.035590 -0.193380
			CHANNELS 3 Zrotation Yrotation Xrotation
			JOINT Spine1
			{
				OFFSET 0.056720 2.048850 -0.042750
				CHANNELS 3 Zrotation Yrotation Xrotation
				JOINT Neck
				{
					OFFSET 0.000000 0.000000 0.000000
					CHANNELS 3 Zrotation Yrotation Xrotation
					JOINT Neck1
					{
						OFFSET -0.054170 1.746240 0.172020
						CHANNELS 3 Zrotation Yrotation Xrotation
						JOINT Head
						{
							OFFSET 0.104070 1.761360 -0.123970
							CHANNELS 3 Zrotation Yrotation Xrotation
							End Site
							{
								OFFSET 0.000000 0.000000 0.000000
							}
						}
					}
				}
				JOINT LeftShoulder
				{
					OFFSET 0.000000 0.000000 0.000000
					CHANNELS 3 Zrotation Yrotation Xrotation
					JOINT LeftArm
					{
						OFFSET 3.362410 1.200890 -0.311210
						CHANNELS 3 Zrotation Yrotation Xrotation
						JOINT LeftForeArm
						{
							OFFSET 4.983000 -0.000000 -0.000000
							CHANNELS 3 Zrotation Yrotation Xrotation
							JOINT LeftHand
							{
								OFFSET 3.483560 -0.000000 -0.000000
								CHANNELS 3 Zrotation Yrotation Xrotation
								JOINT LeftFingerBase
								{
									OFFSET 0.000000 0.000000 0.000000
									CHANNELS 3 Zrotation Yrotation Xrotation
									JOINT LeftHandIndex1
									{
										OFFSET 0.715260 -0.000000 -0.000000
										CHANNELS 3 Zrotation Yrotation Xrotation
										End Site
										{
											OFFSET 0.000000 0.000000 0.000000
										}
									}
								}
								JOINT LThumb
								{
									OFFSET 0.000000 0.000000 0.000000
									CHANNELS 3 Zrotation Yrotation Xrotation
									End Site
									{
										OFFSET 0.000000 0.000000 0.000000
									}
								}
							}
						}
					}
				}
				JOINT RightShoulder
				{
					OFFSET 0.000000 0.000000 0.000000
					CHANNELS 3 Zrotation Yrotation Xrotation
					JOINT RightArm
					{
						OFFSET -3.136600 1.374050 -0.404650
						CHANNELS 3 Zrotation Yrotation Xrotation
						JOINT RightForeArm
						{
							OFFSET -5.241900 -0.000000 -0.000000
							CHANNELS 3 Zrotation Yrotation Xrotation
							JOINT RightHand
							{
								OFFSET -3.444170 -0.000000 -0.000000
								CHANNELS 3 Zrotation Yrotation Xrotation
								JOINT RightFingerBase
								{
									OFFSET 0.000000 0.000000 0.000000
									CHANNELS 3 Zrotation Yrotation Xrotation
									JOINT RightHandIndex1
									{
										OFFSET -0.622530 -0.000000 -0.000000
										CHANNELS 3 Zrotation Yrotation Xrotation
										End Site
										{
											OFFSET 0.000000 0.000000 0.000000
										}
									}
								}
								JOINT RThumb
								{
									OFFSET 0.000000 0.000000 0.000000
									CHANNELS 3 Zrotation Yrotation Xrotation
									End Site
									{
										OFFSET 0.000000 0.000000 0.000000
									}
								}
							}
						}
					}
				}
			}
		}
	}
}
MOTION
Frames: 4
Frame Time: 0.008333
10.091142 16.320299 1.341776 158.974536 -88.501389 -126.491793 -8.997147 -2.706517 0.119377 -12.119189 -7.205616 -78.478214 1.313167 4.862510 71.369797 2.807437 13.222598 -6.088410 1.001900 -0.000000 -37.074900 9.003072 -0.655053 -2.761961 13.923664 -3.476520 -38.803210 2.180578 -3.084032 46.456436 -1.941591 -4.459494 -20.077231 1.230400 0.000000 -74.046200 -3.027036 -1.005195 5.166256 -1.457160 -0.884179 -1.793954 -5.578414 -0.953760 0.603293 7.644612 -2.011516 -5.127987 -2.721423 -0.212111 0.316209 0.000000 0.000000 0.000000 2.993864 3.959734 2.989944 -53.551811 9.291046 34.241426 -1.884784 -62.227527 0.002333 -9.349881 4.437818 -0.363183 0.016299 0.005215 -0.000000 0.000000 0.000000 0.000000 0.000000 0.000000 0.000000 11.647466 0.984932 2.640740 51.758258 22.537029 19.305059 2.449144 46.326503 0.018148 2.563391 6.853253 0.154728 0.065932 -0.203472 0.000000 0.000000 0.000000 0.000000 0.000000 0.000000 0.000000 
9.927391 16.385472 1.346757 156.950365 -88.526371 -124.513452 -8.863586 -2.554717 0.169106 -12.695870 -7.154855 -78.193633 0.987625 4.727274 68.611173 2.744598 12.723774 -6.180380 0.984200 -0.000000 -38.561200 9.092805 -0.730438 -2.854694 13.679884 -4.033950 -37.476743 2.261448 -2.971259 44.850541 -1.816825 -4.204875 -18.948081 1.052901 0.000000 -75.319800 -3.110762 -0.988391 5.211269 -1.459154 -0.861413 -1.782855 -5.516796 -0.930460 0.608129 7.507687 -1.971663 -5.103543 -2.676120 -0.209315 0.322682 0.000000 0.000000 0.000000 2.989294 3.974382 2.974685 -53.188500 9.862418 35.092080 -1.838414 -62.897364 0.002156 -9.631148 4.489230 -0.379136 0.023225 0.001276 0.000000 0.000000 0.000000 0.000000 0.000000 0.000000 0.000000 11.369921 1.051211 2.672356 51.156666 23.082604 20.280136 2.415375 47.052606 0.018095 2.493028 6.904794 0.151429 0.066575 -0.204832 0.000000 0.000000 0.000000 0.000000 0.000000 0.000000 0.000000 
9.760961 16.446301 1.352348 155.086422 -88.548921 -122.700261 -8.733383 -2.383926 0.234516 -13.283428 -7.086492 -77.827367 0.647155 4.578212 65.677050 2.695846 12.295336 -6.262638 0.978100 -0.000000 -39.927300 9.185438 -0.803740 -2.954988 13.441467 -4.646669 -36.126844 2.346848 -2.853364 43.204853 -1.691194 -3.928350 -17.830502 0.885600 0.000000 -76.586199 -3.194525 -0.966796 5.244810 -1.461191 -0.834087 -1.772917 -5.456002 -0.902420 0.619648 7.366424 -1.974280 -5.081499 -2.627937 -0.206343 0.329220 0.000000 0.000000 0.000000 2.986901 3.996907 2.953679 -52.812963 10.444459 35.945694 -1.793152 -63.548122 0.001855 -9.945235 4.581435 -0.400295 0.030625 -0.003479 0.000000 0.000000 0.000000 0.000000 0.000000 0.000000 0.000000 11.078285 1.073383 2.696174 50.582235 23.618237 21.190913 2.376389 47.822970 0.017946 2.404492 6.921513 0.146329 0.067332 -0.206117 0.000000 0.000000 0.000000 0.000000 0.000000 0.000000 0.000000 
9.591737 16.502445 1.358775 153.894326 -88.547842 -121.563387 -8.615742 -2.194568 0.317083 -13.867155 -6.987801 -77.377484 0.289516 4.415987 62.566251 2.657572 11.914880 -6.349786 0.978000 0.000000 -41.103799 9.271090 -0.874119 -3.059494 13.204986 -5.287620 -34.743204 2.433961 -2.725571 41.510865 -1.564329 -3.627842 -16.719304 0.728800 0.000000 -77.836601 -3.288866 -0.935435 5.262230 -1.466058 -0.797321 -1.765907 -5.397441 -0.864926 0.635894 7.224936 -2.015004 -5.061425 -2.578365 -0.203310 0.335985 0.000000 0.000000 0.000000 2.985153 4.022443 2.926318 -52.428738 11.050533 36.793733 -1.748948 -64.175888 0.001413 -10.285495 4.717256 -0.427261 0.038445 -0.009131 0.000000 0.000000 0.000000 0.000000 0.000000 0.000000 0.000000 10.783043 1.058152 2.715310 50.029204 24.144568 22.042865 2.334226 48.630842 0.017753 2.317515 6.907224 0.140529 0.068040 -0.207311 0.000000 0.000000 0.000000 0.000000 0.000000 0.000000 0.000000 
